<!-- Check by Fabio Nucatolo from the Noun Project -->
<svg xmlns="http://www.w3.org/2000/svg" xmlns:xlink="http://www.w3.org/1999/xlink" version="1.1" x="0px" y="0px" viewBox="0 0 100 100" enable-background="new 0 0 100 100" xml:space="preserve"><g><path d="M74.384,33.123c-0.205-0.933-0.947-2.116-3.307-2.519c-2.764-0.327-4.906,2.007-6.596,3.861   c-0.368,0.403-0.72,0.792-1.062,1.133c-0.329,0.329-0.724,0.798-0.936,1.054c-0.582,0.106-0.935,0.793-1.174,1.261   c-0.039,0.076-0.072,0.145-0.101,0.194c-0.514,0.356-0.851,0.863-1.111,1.262L50.67,50.144c-0.271,0.27-1.438,1.453-1.823,2.122   c-1.513,1.517-2.884,3.193-4.224,4.831l-0.49,0.656c-0.154,0.206-0.305,0.409-0.455,0.608c-0.151-0.164-0.301-0.326-0.45-0.486   c-0.402-0.433-0.788-0.849-1.148-1.284c-0.439-0.585-0.882-1.176-1.505-1.948l-0.84-0.828c-0.308-0.461-0.626-0.938-1.11-1.422   c-0.431-0.431-1.315-1.462-1.32-1.467c-0.767-0.92-2.274-2.577-2.368-2.656l-0.226-0.342c-0.62-0.938-1.556-2.354-2.463-3.247   c-0.227-0.151-0.453-0.292-0.679-0.42l0.024-0.062c-0.193-0.097-0.4-0.168-0.604-0.232c-0.073-0.039-0.149-0.067-0.145-0.067   c-0.394-0.197-0.916-0.203-0.974-0.203l-0.02,0.132c-1.747,0.014-3.81,1.051-4.205,2.91c-0.376,1.131,0.315,2.356,1.021,3.062   l1.893,1.893l0.114,0.228l0.057,0.089c1.18,1.475,2.384,3.129,3.548,4.729l0.089,0.111c0.06,0.06,0.158,0.225,0.238,0.375   c1.214,2.28,3.438,3.91,4.9,6.008c0.84,1.206,1.736,2.258,2.537,3.477c0.417,0.635,0.803,1.701,1.466,2.138   c3.246,2.14,4.879-2.188,6.208-4.296l0.023-0.053c1.057-1.116,1.914-2.105,3.211-3.602l0.16-0.184   c1.04-1.281,2.085-2.561,3.127-3.817l1.64-1.739c2.112-2.245,4.108-4.365,6.48-6.74c2.871-3.446,5.715-6.3,8.695-8.726   C72.735,38.322,74.879,35.381,74.384,33.123z"/></g><g display="none"><g display="inline"><path stroke="#000000" d="M73.048,72.514c-0.15-0.6-0.3-1.8-0.3-1.95c0.131-2.871-0.178-5.959-0.265-8.89    c0.03-0.287,0.057-0.573,0.115-0.86c0-0.45,0-1.2,0-1.2c0-0.15,0-0.6,0-0.6c0.15-3.45,0-6.9-0.15-10.35c0-0.75,0-1.65,0-2.55    c0-1.05,0.15-2.25,0.15-3.3c0-0.15,0-0.6,0-0.6c1.5-6.75,0.45-16.2-6.45-19.5c-4.05-1.95-8.85-1.35-13.05-1.65    c-0.9-0.15-1.95-0.15-2.85-0.3c-1.2-0.15-3.6-0.45-3.6-0.45c-0.075-0.15-0.188-0.263-0.32-0.338l0.17,0.038    c-1.65-0.75-3.75,0-5.4,0.15c-3.6,0.15-5.55-0.3-8.7,1.65c-1.2,0.75-1.8,1.8-2.55,3c-0.3,0.6-0.75,1.8-0.75,1.8    c-0.45,0.75-0.6,1.35-0.9,2.1c0,0.3-0.15,0.6-0.15,0.75c-0.9,2.25-0.6,4.5-0.75,6.9c0,1.35-0.45,2.85-0.45,4.2    c-0.15,1.35,0.15,2.85,0.3,4.2c0.15,1.5,0.15,3,0.3,4.65c0,0.9,0.15,2.7,0.15,2.7c0,0.45,0,0.9,0,1.35c0,1.05,0.15,3.15,0.15,3.15    c0.15,1.2,0.15,1.95,0.3,3.15c0.15,0.3,0.15,1.05,0.15,1.05c0,0.6-0.15,1.2,0,1.801c0,2.103,0.119,4.134-0.088,6.23    c-0.28,2.826-0.757,5.847,0.24,8.592c1.377,3.788,5.674,1.741,8.07,0.267c1.656-1.019,3.197-2.221,4.691-3.461    c0.282-0.234,3.438-2.53,3.438-2.628c0,0,0-0.15,0.15-0.15c0.15-0.15,0.6-0.75,0.6-0.75c0.6-0.6,1.35-1.2,1.95-1.8    c0.3-0.3,1.05-1.05,1.05-1.05c0.366-0.293,0.801-0.586,1.118-0.931c0.244-0.059,0.491-0.095,0.741-0.102    c0.2,0.671,0.738,1.23,1.291,1.783c1.95,1.8,4.2,3.15,6.45,4.8c0.75,0.45,1.5,0.75,2.25,1.05c0.15,0.15,0.45,0.3,0.45,0.3    c0.45,0.3,1.5,0.9,1.5,0.9c0.9,0.6,2.85,1.8,2.85,1.8c1.05,0.75,3.15,2.85,4.8,2.85c0.75,0,1.35-0.3,1.8-0.9    c0.15-0.15,0.45-0.75,0.45-0.75c0.3-0.3,0.45-0.9,0.45-0.9c0.3-0.6,0.45-1.05,0.3-1.65c0-0.3,0-0.75,0-0.9    C72.898,74.314,73.048,73.414,73.048,72.514z M69.298,53.764c0,0.9,0.3,1.65,0.3,2.55c0,0.766,0,2.392,0,2.861    c-0.006,0.153-0.008,0.303-0.015,0.456c-0.04,0.672-0.285,1.241-0.285,1.933c0,0.3,0,1.05,0,1.2c0,0.45,0,0.9,0,1.35    c0,0.15,0,0.75,0,0.75c0,0.663,0,1.394,0,2.1c0,0.252,0,0.513,0,0.75c0,1.5-0.15,4.65-0.15,4.8c0,0.218,0.056,0.447,0.15,0.665    c0,0.08,0,0.155,0,0.235c0,0.442,0.027,1.093,0.058,1.703c-0.735-0.749-1.885-1.308-2.458-1.553c-0.6-0.3-1.2-0.6-1.8-0.9    c-3.797-1.969-7.324-4.079-10.47-6.929c-0.178-0.619-0.485-1.233-1.08-1.471c-0.645-0.377-1.347-0.421-1.956-0.239    c-0.28-0.057-0.56-0.115-0.84-0.163c-0.068-0.016-0.137-0.031-0.204-0.048c-0.3-0.15-1.2,0-1.2,0c-2.25,0.15-4.35,2.55-6,3.9    c-2.428,1.754-4.997,3.299-7.291,5.191c-1.434,1.183-2.451,1.305-3.072,0.72c-0.559-0.526-0.797-1.625-0.73-3.039    c0.187-3.944-0.169-7.635-0.607-11.573c-0.3-2.7-0.15-5.25-0.15-7.95c-0.15-3.75-0.45-7.5-0.15-11.25c0.15-2.85,0.15-6.3,1.05-9    c0.3-1.05,0.75-2.25,1.2-3.45c0.15-0.45,0.3-1.05,0.6-1.65c0-0.15,0.3-0.6,0.3-0.75c0.3-0.15,0.6-0.45,0.75-0.45    c0.9-0.15,1.8-0.15,2.85-0.15c0.3,0,0.6,0,0.9,0c0.15-0.15,0.45-0.15,0.6-0.15c0.3,0,0.75,0,1.05-0.15c0.6-0.15,1.65-0.3,1.65-0.3    c2.85,0.3,5.7,0.6,8.55,0.6c2.7-0.15,5.4-0.45,8.1,0c1.8,0.45,4.95,0.45,6.75,1.95c0.259,0.197,0.484,0.419,0.717,0.636    c-0.036,0.234-0.032,0.475,0.033,0.714c0.15,0.45,0.45,0.75,0.9,1.2c0.9,1.05,1.95,3,2.1,4.5    c0.403,3.761-0.034,7.402-0.238,11.138C68.876,47.577,68.948,50.85,69.298,53.764z"/></g></g></svg>