<svg xmlns="http://www.w3.org/2000/svg" xmlns:xlink="http://www.w3.org/1999/xlink" xml:space="preserve" version="1.1" style="shape-rendering:geometricPrecision;text-rendering:geometricPrecision;image-rendering:optimizeQuality;" viewBox="0 0 307 300" x="0px" y="0px" fill-rule="evenodd" clip-rule="evenodd"><defs><style type="text/css">
   
    .fil0 {fill:black}
   
  </style></defs><g><path class="fil0" d="M143 1c-14,3 -13,1 -29,8 -4,1 -9,3 -13,5 -4,1 -4,1 -6,3 -2,1 -5,1 -7,2 -18,7 -34,20 -44,30 -10,10 -24,27 -31,43 -9,19 -13,39 -13,62 -1,36 22,79 47,100 23,21 66,42 110,36 32,-4 58,-10 81,-28 7,-6 14,-12 20,-18 38,-46 57,-102 27,-164 -16,-31 -46,-56 -79,-69 -16,-7 -44,-14 -63,-10zm4 27c-20,3 -6,5 -22,8 -35,7 -53,21 -74,46 -27,33 -32,78 -12,117 13,26 20,33 43,47 6,4 13,7 20,10 15,7 34,10 51,8 40,-4 63,-15 84,-37 46,-49 50,-122 -2,-168 -22,-18 -58,-37 -88,-31z"/></g></svg>