<svg xmlns="http://www.w3.org/2000/svg" viewBox="0 0 90 90" x="0px" y="0px"><title>roundel_14</title><g data-name="Layer 2"><g data-name="little bird"><path d="M19.11,16.22a31.26,31.26,0,0,0-2.62,3.31c-.11.13-.15.32-.27.44a9.2,9.2,0,0,0-1.68,2.6,21.86,21.86,0,0,1-1.21,2.09c-.57.87-1,1.81-1.49,2.72-.37,1.38-1.24,2.57-1.62,4a15.94,15.94,0,0,1-.86,2c-.25.58-.47,1.16-.69,1.75S8.19,36.42,7.9,37A16.81,16.81,0,0,0,7.22,39a6.12,6.12,0,0,0-.54,2.14,1.06,1.06,0,0,1-.12.49,1.93,1.93,0,0,0-.21.82,4.7,4.7,0,0,0,0,.51c0,.48-.28.87-.34,1.32s-.07.91-.14,1.36a2,2,0,0,1-.19.47l-.12,2.22-.22.55V52s0,0,0,.06.12.32.2.53l.12,3.8a4.18,4.18,0,0,1,.29.9,4.86,4.86,0,0,0,.38,1.65c-.05.54.31,1,.38,1.48s.31,1,.4,1.48a10.29,10.29,0,0,0,.42,1.3c.16.49.38,1,.55,1.43a4.59,4.59,0,0,0,.12.5,40.7,40.7,0,0,0,3.56,6.29,22,22,0,0,0,2.79,3.32,7.33,7.33,0,0,0,1.62,1.34,3.38,3.38,0,0,1,.79.69,26.3,26.3,0,0,0,5.12,3.69c1.58.93,3.25,1.68,4.89,2.47.42.35,1.06.2,1.47.58a8.55,8.55,0,0,0,1.54.43,6.79,6.79,0,0,1,1.19.34,9.17,9.17,0,0,0,1.38.33,2.75,2.75,0,0,1,.67.24,11.73,11.73,0,0,1,2.47.26,1.48,1.48,0,0,1,1.39.05h1.41c.26-.21.59,0,.83-.08s.68.23,1,0a2.22,2.22,0,0,1,1-.18c.36,0,.72,0,1.08,0l.83-.34A4,4,0,0,0,45,84.27a.41.41,0,0,1,.18,0,5,5,0,0,0,1.74-.33c.62,0,1.13-.33,1.72-.41.23,0,.44-.21.67-.23a7.22,7.22,0,0,0,2.5-.87c.8-.37,1.61-.73,2.43-1.06a19.37,19.37,0,0,0,3.32-1.66,6.46,6.46,0,0,1,1-.39,5.26,5.26,0,0,1,1.4-1c.11,0,.18-.14.27-.22A12.48,12.48,0,0,1,62,76.82c.61-.35,1.06-.91,1.67-1.29a15.45,15.45,0,0,0,1.46-1.26,5.38,5.38,0,0,1,.8-.45,7.59,7.59,0,0,0,1.34-1.53,1,1,0,0,0,.78-.64,13.22,13.22,0,0,1,.71-1.71,1.86,1.86,0,0,1-.17-.32.47.47,0,0,1,.1-.48,1.59,1.59,0,0,1,.75-.42l.47-.93.07-1.43c.19-.51.64-.61.94-.87.23-.43,0-.9.17-1.34l1-1.14.05-1.25.85-.88a4.35,4.35,0,0,1,.36-1c.24-.35.14-.78.37-1.13a6.22,6.22,0,0,0,.37-1,1.21,1.21,0,0,0,.14-.66,4.38,4.38,0,0,1,.44-1.81,2.77,2.77,0,0,1,1-1.53c0-.54.34-.9.43-1.35a5.08,5.08,0,0,1,.36-1.14c.18-.42.27-.88.46-1.28a5.46,5.46,0,0,0,.24-1.17l1-2,.13-1.14a6.66,6.66,0,0,0,.5-.73c.18-.35.14-.79.41-1.12a10.57,10.57,0,0,1,.4-1.65,7,7,0,0,1,.34-1.15c.14-.37.07-.79.3-1.15s.1-.9.33-1.32.17-.89.44-1.29a1.14,1.14,0,0,0,.08-.5,3.53,3.53,0,0,1,.27-1.16,4.92,4.92,0,0,0,.17-1,2.39,2.39,0,0,1,.23-.49l.12-2.77.25-.59c.12-2.28.07-4.56,0-6.92l-.25-.65-.1-1.44A5.55,5.55,0,0,1,81,19.87a.79.79,0,0,0-.1-.32c-.49-1-.71-2-1.2-3-.26-.51-.53-1-.78-1.54a5.85,5.85,0,0,0-1.15-1.71c-.25-.24-.37-.59-.61-.84a14.29,14.29,0,0,0-1.28-1.2,19.09,19.09,0,0,0-4.39-2.91,13.62,13.62,0,0,0-2.27-1,2,2,0,0,1-.47-.23c-.21-.11-.4-.31-.61-.33-.43,0-.77-.32-1.18-.39a5.23,5.23,0,0,1-1.2-.3,7.27,7.27,0,0,1-1-.29,1,1,0,0,0-.34-.09,3.46,3.46,0,0,1-1.56-.34,7.63,7.63,0,0,1-1.39-.31c-.49-.18-1-.18-1.55-.37s-1-.07-1.37-.33l-1.59-.12L56.35,4,53.7,3.9,53,3.67H50.35a1.65,1.65,0,0,0-.54,0,12.59,12.59,0,0,1-3,.34l-.64.23-1.54.12a2.77,2.77,0,0,1-.63.23,23.29,23.29,0,0,0-2.43.54c-.75.17-1.47.44-2.2.67a2,2,0,0,1-.5.16,4.24,4.24,0,0,0-1.52.47c-.38.16-.75.36-1.14.55A6.56,6.56,0,0,0,34,7.73c-.55,0-1.2,0-1.86,0s-1.19,0-1.82,0a1,1,0,0,1-.51-.41.43.43,0,0,1,.1-.61c.74-.48,1.46-1,2.23-1.42a39.59,39.59,0,0,1,4.86-2.53c.16-.06.34-.09.51-.16a31.26,31.26,0,0,1,3.5-1.24c.62-.18,1.28-.26,1.9-.45.5.05.9-.28,1.38-.31L45.48.51A1.64,1.64,0,0,0,46,.43,3.69,3.69,0,0,1,47.41.22L48.67.17A2.66,2.66,0,0,0,49.9,0a6.15,6.15,0,0,0,1.22.15q1.35,0,2.69,0a4.31,4.31,0,0,1,1.93.26l2,.15.45.17a3.06,3.06,0,0,0,.88.11A2.62,2.62,0,0,1,60,1c.5.26,1.07.12,1.56.35a2.07,2.07,0,0,0,.5.18,5.44,5.44,0,0,1,1.57.3c.42.21.94.07,1.38.31s1.08.07,1.54.4a10.8,10.8,0,0,1,3,.93c.21.09.46.12.68.19.39.14.77.28,1.18.39a8.31,8.31,0,0,1,1.29.59c.48.23.95.49,1.44.69A31.83,31.83,0,0,1,78,7.49c.6.56,1.37.92,2,1.47A20.61,20.61,0,0,1,82.1,11a13.34,13.34,0,0,1,2.08,3c.4.89.91,1.72,1.37,2.59.24.46.46.93.69,1.39a1.28,1.28,0,0,1,.16.31,11.74,11.74,0,0,0,.69,1.93,5,5,0,0,0,.29,1,1.21,1.21,0,0,1,.12.49A5.57,5.57,0,0,0,87.78,23a5.94,5.94,0,0,1,.17,1.34l.22.47c.15,1.67,0,3.32,0,5a2.68,2.68,0,0,1-.1.5c0,.11-.09.24,0,.32.31.52,0,1-.09,1.48,0,.16.17.32.35.28l.16-.05.35-.15a10.48,10.48,0,0,1,.13,2.72c.08.91.05,1.83.07,2.73l.22.47c.07.32-.17.54-.24.84l-.13,1.51a3.24,3.24,0,0,0-.28,1.84c0,.23,0,.46,0,.69l-.27.65a1.34,1.34,0,0,0-.05.31,5.86,5.86,0,0,1-.49,2.32,7.67,7.67,0,0,0-.25,1,12.66,12.66,0,0,0-.45,1.81c-.38.44-.26,1-.31,1.48a3.71,3.71,0,0,1-.53,1.08c-.23.34-.08.8-.37,1.13a12.23,12.23,0,0,1-1.2,3A9.54,9.54,0,0,0,84,57.5a4.75,4.75,0,0,1-.56,1.24,24.72,24.72,0,0,0-1.68,3,12.89,12.89,0,0,1-1.32,2,7.22,7.22,0,0,0-.64,1,13.4,13.4,0,0,1-2.08,3,1.83,1.83,0,0,0-.35.39A15.94,15.94,0,0,1,76,69.94a11.51,11.51,0,0,1-1.16,1.51,10.17,10.17,0,0,0-1.48,1.71,2.61,2.61,0,0,1-.48.51l-2.78,2.68a6,6,0,0,1-1,.75,4,4,0,0,0-.69.77,1.53,1.53,0,0,1-.39.35A13,13,0,0,0,65.79,80l-1.26.62-.79.69c-.67.34-1.32.75-2,1.12s-1.32.77-2,1.11-1.6.76-2.39,1.16c-.27.14-.58.16-.84.27a5.83,5.83,0,0,0-.75.47.45.45,0,0,1-.16.08,17.17,17.17,0,0,0-1.82.68c-.41.11-.77.3-1.17.4s-.92.24-1.36.39a5.77,5.77,0,0,1-1.37.37c-.47,0-.88.32-1.38.32a5.65,5.65,0,0,0-1,.28c-.35.07-.71.06-1.07.12a2.52,2.52,0,0,0-.5.19l-.36,0a6.85,6.85,0,0,0-2.47.29,2.22,2.22,0,0,1-.71.06l-1.95.07-.8.26H36.32a5.13,5.13,0,0,1-1.41-.17,6.25,6.25,0,0,0-1.42-.14,4.28,4.28,0,0,1-1.93-.28,1.07,1.07,0,0,0-.35,0,17.3,17.3,0,0,1-2.93-.68c-.56-.17-1.14-.31-1.7-.5a7.68,7.68,0,0,0-1.65-.62,23.9,23.9,0,0,0-2.7-1.3c-1.16-.69-2.38-1.29-3.51-2A22.24,22.24,0,0,1,15.58,81a8.94,8.94,0,0,1-1.92-1.53c-.64-.6-1.42-1-2-1.67A17.59,17.59,0,0,0,9.69,76a8.94,8.94,0,0,1-1.88-2.27c-.38-.57-.8-1.13-1.19-1.7A37.12,37.12,0,0,1,4,67.76c-.36-.84-.78-1.66-1.15-2.5S2.27,63.54,2,62.68a3.67,3.67,0,0,1-.38-1.3c0-.4-.35-.72-.32-1.14S1,59.48,1,59.08s-.07-.68-.13-1a2.23,2.23,0,0,0-.21-.47c0-.52-.07-1-.11-1.54a1.3,1.3,0,0,0-.09-.5A3.17,3.17,0,0,1,.21,54c0-1.43,0-2.86-.06-4.29A4.43,4.43,0,0,0,0,49l.16-.44c0-.55,0-1.12.06-1.69a3.29,3.29,0,0,1,.2-1.18,2.08,2.08,0,0,0,.1-.67c0-.57.08-1.14.11-1.64a3.66,3.66,0,0,0,.27-.71,11.47,11.47,0,0,1,.32-1.33,3.88,3.88,0,0,1,.38-1.31A5.29,5.29,0,0,1,2,38.43a9.72,9.72,0,0,1,.57-1.61.75.75,0,0,0,.12-.32,4.21,4.21,0,0,1,.54-1.61c.21-.53.49-1,.66-1.58a14.22,14.22,0,0,0,.66-1.58,1,1,0,0,1,.15-.31c.72-1.24,1.17-2.61,1.85-3.87s1.26-2.45,1.93-3.65a10.5,10.5,0,0,1,.8-1.33c.31-.41.47-.93.79-1.33.55-.68.88-1.48,1.4-2.18s1.29-1.63,1.9-2.47c.34-.47.7-.92,1.09-1.35a12,12,0,0,0,1-1.2,4.35,4.35,0,0,1,.6-.63l2.77-2.69a3.61,3.61,0,0,1,.8-.68,19.11,19.11,0,0,0,1.55-1.15c.25-.16.52-.28.79-.41a1.41,1.41,0,0,1,1.18.13L21.93,9.86c0,.16.06.25.19.22s.55-.18.83-.27c.12,0,.17,0,.14.1s0,.1,0,.14a16.3,16.3,0,0,0-1.7,2.59A1.55,1.55,0,0,1,21,13a1.94,1.94,0,0,0-.37.57,4,4,0,0,1-.61,1A8.5,8.5,0,0,0,19.11,16.22Z"/></g></g></svg>
