<!-- down facing arrow by Gorreá from the Noun Project -->
<svg xmlns="http://www.w3.org/2000/svg" xmlns:xlink="http://www.w3.org/1999/xlink" version="1.1" x="0px" y="0px" viewBox="0 0 100 100" enable-background="new 0 0 100 100" xml:space="preserve"><path d="M88.118,12.573C76.987,38.821,58.867,64.206,29.894,71.772c-2.026,0.529-1.186,3.677,0.848,3.146  c30.155-7.874,48.929-34.147,60.512-61.461C92.072,11.529,88.926,10.668,88.118,12.573L88.118,12.573z"/><path d="M26.93,61.346c-4.633,5.569-9.285,11.124-13.9,16.708c-1.652,1.999-3.763,4.2-1.565,6.666  c1.319,1.48,3.879,1.827,5.633,2.282c3.416,0.886,6.859,1.669,10.322,2.347c6.444,1.262,12.95,2.123,19.488,2.698  c2.084,0.183,2.091-3.076,0.019-3.258c-9.455-0.831-18.812-2.349-28.015-4.682c-2.406-0.61-4.684-0.589-3.597-3.737  c0.683-1.978,3.702-4.45,5.055-6.076c2.949-3.544,5.897-7.088,8.846-10.632C30.545,62.064,28.272,59.734,26.93,61.346L26.93,61.346z  "/></svg>