<!-- Close by Fabio Nucatolo from the Noun Project -->
<svg xmlns="http://www.w3.org/2000/svg" xmlns:xlink="http://www.w3.org/1999/xlink" version="1.1" x="0px" y="0px" viewBox="0 0 100 125" enable-background="new 0 0 100 100" xml:space="preserve"><g><path d="M68.837,59.425c-1.015-0.932-2.354-1.668-3.266-2.468c-2.022-1.774-5.833-4.367-6.407-7.168   c-0.38-1.856,0.996-3.174,2.222-4.331c1.455-1.373,2.569-2.695,3.706-4.356c2.229-3.254,2.6-6.594-1.155-8.846   c-1.606-0.963-4.114-2.142-5.985-1.376c-1.602,0.656-3.238,2.463-4.382,3.761c-1.138,1.291-3.068,4.194-4.608,4.892   c-1.778,0.806-3.823-2.196-5.088-3.357c-2.107-1.935-6.061-8.322-9.551-6.834c-0.426,0.182-0.845,0.477-1.246,0.878   c-0.174,0.174-0.317,0.341-0.422,0.473c-0.255,0.187-0.463,0.445-0.629,0.708c-0.78,0.194-1.214,1.423-1.33,2.161   c-0.344,0.498-0.527,1.152-0.604,1.486c-0.75,1.527-1.577,3.745-0.551,5.798l1.595,1.662c0.235,0.235,0.611,0.416,0.912,0.536   c1.083,1.314,2.326,2.463,3.525,3.577c0.621,0.576,1.253,1.152,1.939,1.827c0.541,0.423,1.148,0.919,1.823,1.534   c-1.372,1.544-2.472,3.295-3.997,4.597c-2.307,1.97-2.542,4.12-3.921,6.544c-1.42,2.496-3.337,4.981-0.743,7.575   c4.785,4.785,10.332,2.266,13.732-2.401c1.323-1.816,3.005-5.801,5.487-6.191c1.542-0.242,2.786,1.572,3.783,2.521   c1.689,1.608,3.367,3.274,5.152,4.777c0,0,0.348,0.335,0.398,0.383c2.303,2.219,4.775-0.04,6.734-1.454   c1.784-1.288,4.805-1.743,4.249-4.704C70.047,60.755,69.514,60.047,68.837,59.425z"/></g><g display="none"><g display="inline"><path d="M82.647,49.063c-0.18-1.301-0.367-2.646-0.432-3.934c0-1.308-0.095-2.36-0.205-3.579l-0.136-1.695    c-0.128-2.056-0.303-4.871-2.247-6.216c-0.621-0.497-1.162-0.64-1.734-0.791c-0.207-0.055-0.427-0.112-0.67-0.193    c-0.319-0.106-0.654-0.284-1.01-0.474c-0.566-0.302-1.209-0.645-1.916-0.745c-1.512-0.252-3.351-0.018-5.032,0.246    c-1.147,0.179-2.231,0.348-3.3,0.348c-0.812,0-1.647-0.074-2.455-0.146c-0.396-0.035-0.792-0.07-1.188-0.098    c-0.17-0.287-0.379-0.694-0.58-1.087c-0.374-0.729-0.577-1.123-0.759-1.326c-0.438-1.165-0.894-2.357-1.503-3.271l-0.841-1.261    c-0.056-0.213-0.202-0.397-0.392-0.507c-0.459-1.157-1.062-2.19-1.784-3.055c-0.779-1.039-1.238-1.494-1.516-1.694    c-0.17-0.31-0.425-0.692-0.48-0.76c-0.055-0.055-0.15-0.21-0.237-0.373c-0.346-0.52-0.673-1.011-1.094-1.221    c-0.159-0.08-0.329-0.124-0.473-0.159v-0.193h-0.449c-0.005-0.001-0.01-0.002-0.015-0.003c-0.16-0.155-0.349-0.287-0.562-0.395    c-0.281-0.141-0.57-0.212-0.859-0.212c-1.11,0-1.892,1.002-2.519,1.807c-0.182,0.232-0.347,0.447-0.499,0.6    c-2.4,2.4-4.047,4.636-6.132,7.466l-0.071,0.097c-0.732,1.025-1.597,2.179-2.613,2.907c-0.859,0.716-1.746,1.158-2.538,1.559    l-0.38,0.12c-0.657,0.203-1.459,0.45-2.023,0.944c-0.415-0.023-0.849-0.039-1.339-0.039c-0.467,0-1.085,0.054-1.513,0.098    c-0.095-0.396-0.296-0.759-0.609-1.064c-0.549-0.365-1.577-0.384-1.777-0.384l-0.002,0.021c-0.642-0.028-1.279,0.049-1.88,0.136    l-0.85,0.138c-2.235,0.359-4,0.643-6.099,2.041c-0.959,0.64-1.951,1.302-2.282,2.472c-0.788,1.893-0.788,4.526-0.788,6.643    c0,0.782,0.294,2.557,0.3,2.566c0.15,4.5,0.301,9,0.45,13.634l0.006,3.526c0.174,1.131,0.192,2.38,0.21,3.588    c0.013,0.841,0.024,1.636,0.091,2.418c0.146,0.877,0.293,1.612,0.443,2.317c0,0.168,0.14,0.915,0.482,1.308    c0.397,2.771,1.165,7.674,4.432,9.633c2.303,1.233,4.598,1.392,6.34,1.392c0.871,0,1.748-0.044,2.633-0.088    c1.343-0.067,2.739-0.137,4.125-0.046c1.277,0.099,2.59,0.335,3.858,0.562c0.651,0.117,1.303,0.233,1.943,0.332    c0.987,0.174,1.996,0.255,3.175,0.255c0.657,0,1.304-0.023,1.958-0.048c0.655-0.025,1.317-0.05,2.059-0.053    c0.688-0.075,1.416,0.063,2.2,0.209c0.64,0.121,1.312,0.219,1.875,0.239c1.204,0.171,2.394,0.147,3.681,0.076    c0.634-0.034,1.307-0.071,2.063-0.072l0.865,0.048c0.992,0.056,1.849,0.104,2.702,0.104c1.187,0,2.304-0.092,3.658-0.301    c0.361,0,0.697-0.084,1.021-0.165c1.019-0.254,1.817-0.057,2.657,0.103c0.609,0.116,1.238,0.237,1.87,0.237    c0.001,0,0.001,0,0.001,0c0.169,0,0.337-0.009,0.521-0.029c1.058-0.151,2.012-0.453,2.992-0.943l0.656-0.305    c2.495-1.15,5.322-2.454,5.921-5.449c0.238-1.192,0.206-2.636,0.178-3.909c-0.009-0.397-0.018-0.781-0.018-1.139    c0-1.979,0.153-4.217,0.3-5.681c0.055-1.429,0.173-2.914,0.288-4.351c0.2-2.509,0.407-5.103,0.312-7.669    C83.115,52.429,82.878,50.717,82.647,49.063z M46.218,29.883c0.405-0.405,0.579-0.966,0.457-1.548    c0.638-0.902,1.499-2.052,1.494-2.054c0.742-0.742,1.402-1.547,2.041-2.325c0.251-0.307,0.499-0.608,0.746-0.899    c0.198-0.102,0.335-0.29,0.413-0.425l0.112-0.112c2.104,3.256,3.966,6.409,5.86,9.654c-0.502,0.021-0.973-0.051-1.495-0.138    c-0.463-0.077-0.941-0.157-1.433-0.157c-0.631,0-1.256,0.078-1.861,0.153c-1.013,0.127-1.919,0.168-2.964,0.058    c-0.728-0.076-1.582-0.15-2.247-0.06c-0.972,0.044-1.997,0.073-3.105,0.091C45.024,31.348,45.683,30.603,46.218,29.883z     M78.668,65.21c-0.109,1.454-0.218,2.902-0.296,4.287c-0.156,0.941-0.156,1.863-0.156,2.932c0,0.301,0.009,0.611,0.019,0.925    c0.054,1.831,0.104,3.56-1.495,4.308c-0.739,0.277-1.414,0.604-2.066,0.922c-0.425,0.206-0.84,0.408-1.233,0.577    c-0.432,0.145-0.841,0.281-1.159,0.429c-0.648,0.049-1.312-0.084-2.019-0.225c-0.771-0.155-1.598-0.313-2.392-0.233    c-0.846,0.077-1.694,0.231-2.516,0.381c-0.801,0.146-1.63,0.297-2.444,0.37c-0.967,0.108-1.871-0.034-2.753-0.171    c-0.295-0.046-0.587-0.091-0.879-0.128l-0.062-0.004c-0.812,0-1.547,0.051-2.258,0.1c-1.026,0.072-2.067,0.129-3.061,0.058    c-0.44-0.073-0.919-0.185-1.396-0.295c-0.497-0.114-0.994-0.229-1.497-0.312c-1.009-0.075-1.952,0.001-2.855,0.076    c-0.907,0.075-1.66,0.15-2.733,0.073c-1.569,0-3.188-0.306-4.755-0.601c-1.377-0.26-2.802-0.528-4.189-0.597    c-0.423-0.047-0.995-0.069-1.75-0.069c-0.726,0-1.507,0.021-2.195,0.039c-0.534,0.015-1.011,0.027-1.392,0.028    c-0.295,0.019-0.588,0.041-0.879,0.064c-0.629,0.049-1.223,0.096-1.809,0.096c-1.582,0-2.69-0.371-3.678-1.215    c-1.412-1.412-1.762-4.105-2.043-6.269l-0.065-0.498c-0.058-0.403-0.157-0.828-0.261-1.267c-0.164-0.696-0.334-1.416-0.336-2.153    c-0.147-1.854-0.147-3.713-0.147-5.51c0-1.816,0-3.694-0.151-5.577l-0.011-0.19c-0.146-2.621-0.284-5.096-0.139-7.732    c0-0.643-0.102-1.46-0.3-2.4c0-0.193-0.054-0.557-0.101-0.856c-0.024-0.155-0.047-0.288-0.05-0.343c0-2.202,0-4.698,0.848-6.677    l0.132-0.269c0.256-0.529,0.642-1.321,0.985-1.597l1.394-0.419c1.004-0.126,1.99,0.073,3.045,0.288    c0.856,0.176,1.743,0.356,2.655,0.356c0.23,0,0.463-0.012,0.673-0.035c2.479-0.159,5.512-0.035,8.312,0.108    c1.835,0.095,3.732,0.192,5.605,0.192h6.45c0.563,0,1.078-0.079,1.576-0.155c1.146-0.177,2.278-0.133,3.261-0.074    c1.188,0.071,2.312,0.095,3.329-0.074c1.198-0.159,2.655-0.079,3.997,0.028c0.78,0.062,1.587,0.126,2.387,0.126    c2.393,0,4.731-0.286,7.111-0.604c0.728-0.095,1.364,0.242,2.05,0.602c0.275,0.144,0.554,0.289,0.882,0.428    c0.335,0.111,0.999,0.305,1.327,0.399c0.976,1.735,0.963,3.967,0.95,6.127c-0.006,0.988-0.012,2.01,0.087,2.98    c0.471,2.827,0.893,5.58,0.893,8.183C79.222,57.784,78.94,61.559,78.668,65.21z"/><path d="M73.209,69.648c-0.144-0.859-0.144-1.874-0.147-2.835c-0.276-2.069-0.165-3.722-0.023-5.813l0.026-0.396    c0.139-2.893,0.037-6.247-0.301-9.969c-0.183-2.001-0.545-3.759-1.078-5.226l-0.054-0.106c-0.363-0.544-0.871-1.188-1.593-1.394    c-0.344-0.159-0.888-0.298-0.951-0.314l-0.154-0.015c-0.304-0.15-0.642-0.3-1.019-0.3h-0.899c-0.302,0-0.776,0.105-0.962,0.149    c-0.633,0.01-1.613,0.149-1.588,0.15h-1.769l-0.106,0.053c-0.132,0.066-0.464,0.155-0.737,0.217    c-0.278-0.151-0.561-0.228-0.841-0.228c-1.303,0-1.997,1.572-1.997,2.708c0,1.36,0.163,2.63,0.32,3.857    c0.108,0.846,0.22,1.719,0.279,2.593c0,0.23-0.015,0.476-0.03,0.73c-0.034,0.578-0.074,1.233,0.034,1.882    c0.074,0.591,0.11,1.22,0.147,1.848c0.038,0.646,0.076,1.293,0.148,1.84c0,0.475,0.142,1.204,0.15,1.204c0,0,0,0,0-0.001    c0,1.509,0.29,4.424,0.303,4.547c0.159,1.592,0.291,3.137,0.147,4.6c0,0.118-0.006,0.284-0.014,0.48    c-0.031,0.866-0.078,2.176,0.216,3.045c0.329,0.656,1.021,1.408,1.825,1.61l0.122,0.015c0.372,0,0.9-0.087,1.153-0.133    c1.365,0.503,2.835,0.465,4.099,0.44c0.492-0.008,0.913-0.021,1.499,0.116c0.35,0.082,0.745,0.176,1.199,0.176    c0.493,0,1.107,0,1.705-0.597c0.106-0.107,0.191-0.261,0.321-0.503c0.038-0.071,0.092-0.172,0.138-0.25l0.193-0.209    c0.707-0.99,0.531-2.07,0.361-3.115C73.289,70.236,73.244,69.958,73.209,69.648z M64.615,47.38L64.615,47.38L64.615,47.38    L64.615,47.38z M64.615,70.03L64.615,70.03L64.615,70.03L64.615,70.03z"/><path d="M54.01,71.309c-0.232-1.628-0.376-2.273-0.635-3.443l-0.726-3.058l-0.038-0.102c-0.091-0.183-0.209-0.587-0.257-0.774    c-0.161-0.81-0.328-1.647-0.887-2.206c-0.321-0.321-0.927-0.777-1.029-0.844c-0.07-0.035-0.132-0.071-0.188-0.104    c-0.181-0.104-0.383-0.221-0.675-0.244c-0.143-0.052-0.285-0.07-0.411-0.076l-0.353-0.069c-0.186-0.037-0.415-0.057-0.625-0.064    c-0.982-0.103-1.998-0.05-2.961,0.001c-0.507,0.027-0.998,0.054-1.461,0.054l-0.158,0.025c-0.304,0.102-0.747,0.125-0.892,0.125    c-0.894,0-1.577,0.104-2.369,0.223l-0.481,0.077c-0.517,0-1.408,0.292-1.497,0.322c-2.093,0.645-2.043,3.024-2.011,4.601    c0.004,0.186,0.008,0.363,0.013,0.457c-0.099,0.696-0.021,1.422,0.054,2.125c0.047,0.44,0.092,0.856,0.092,1.245    c0,0.288-0.014,0.59-0.027,0.896c-0.054,1.216-0.114,2.585,0.658,3.494c0.025,0.3,0.101,0.532,0.266,0.764    c0.399,0.399,0.823,0.505,1.503,0.29c0.104-0.014,0.199-0.049,0.28-0.091c0.671,0.214,1.925,0.504,2.544,0.194l0.13-0.094    c0.004-0.003,0.007-0.007,0.011-0.011c0.521,0.535,1.352,0.823,2.408,0.823c1.711,0,3.65-0.739,4.492-1.727    c0.211,0.063,0.438,0.142,0.674,0.221c0.759,0.258,1.618,0.549,2.407,0.549c0.536,0,0.992-0.138,1.407-0.455    c0.796-0.796,0.772-1.839,0.753-2.678L54.01,71.309z"/><path d="M53.257,51.769c-0.026-0.331-0.035-0.74-0.045-1.191c-0.035-1.69-0.085-4.005-1.102-5.402    c-0.493-0.615-1.098-1.057-1.803-1.315l0.011-0.062l-0.69-0.135c-0.513-0.171-1.273-0.176-1.358-0.176l-0.001,0.01    c-0.098-0.005-0.212-0.008-0.397,0c-0.729,0.146-2.454,0.434-2.454,0.44c-2.815,0-5.721,0.166-8.53,0.327    c-1.84,0.105-3.741,0.214-5.665,0.283c-0.962,0.191-1.793,0.769-2.28,1.583l-0.046,0.099c-0.123,0.369-0.241,0.988-0.293,1.274    c-0.114,0.127-0.211,0.254-0.306,0.382c-0.1,0.132-0.197,0.266-0.33,0.397l-0.146,0.12v0.208    c-0.008,0.042-0.056,0.166-0.126,0.318c-0.176,0.527-0.176,0.74-0.176,1.208v0.9c0,0.77,0.146,1.587,0.289,2.378    c0.061,0.34,0.12,0.673,0.161,0.922c0,0.301,0.105,0.773,0.15,0.96c0.001,0.316,0.01,0.764,0.156,1.238    c0.02,0.169,0.083,0.393,0.144,0.582l0.015,0.19c0.175,0.702,0.727,1.505,1.527,1.704c0.57,0.187,1.092-0.008,1.433-0.178    l0.247-0.212c0.346,0.363,0.829,0.548,1.442,0.548c0.448,0,0.917-0.097,1.33-0.181c0.201-0.041,0.396-0.082,0.664-0.128    c0.537-0.18,1.164-0.244,1.771-0.307c0.345-0.036,0.684-0.071,0.921-0.118c0.889,0,1.777-0.036,2.685-0.073    c0.93-0.037,1.878-0.076,2.865-0.076l0.158-0.025c0.338-0.113,0.876-0.229,1.068-0.271c1.722,0.169,3.021,0.117,4.433-0.166    c1.333-0.296,4.058-0.723,4.241-0.738c0.59,0,1.25-0.534,1.25-1.25v-0.533c0.315-1.206-0.204-2.103-0.828-2.89    C53.526,52.196,53.352,51.919,53.257,51.769z"/></g></g><text x="0" y="115" fill="#000000" font-size="5px" font-weight="bold" font-family="'Helvetica Neue', Helvetica, Arial-Unicode, Arial, Sans-serif">Created by Fabio Nucatolo</text><text x="0" y="120" fill="#000000" font-size="5px" font-weight="bold" font-family="'Helvetica Neue', Helvetica, Arial-Unicode, Arial, Sans-serif">from the Noun Project</text></svg>