<!-- Flag by Spencer Harrison from the Noun Project -->
<svg xmlns="http://www.w3.org/2000/svg" xmlns:xlink="http://www.w3.org/1999/xlink" version="1.1" x="0px" y="0px" viewBox="0 0 100 100" style="enable-background:new 0 0 100 100;" xml:space="preserve"><style type="text/css">
	.st0{fill-rule:evenodd;clip-rule:evenodd;}
</style><path class="st0" d="M77.332,42.363c-0.167-1.32-0.165-2.77-0.137-4.1c0.022-1.042-0.47-2.181-0.496-3.265  c-0.025-1.002,0.372-2.185,0.158-3.168c-0.224-1.029-0.11-2.142-0.189-3.176c-0.068-0.902-0.108-1.716-0.165-2.616  c-0.083-1.317-0.018-2.803-0.319-4.081c-0.145-0.617,0.062-1.344,0.046-1.978c-0.013-0.521-0.166-1.003-0.193-1.511  c-0.04-0.748,0.587-3.247-0.868-3.037c-0.83,0.119-1.783,0.618-2.586,0.867c-0.341,0.106-1.21,0.671-1.424,0.646  c-0.627-0.074-1.711,0.597-2.063,1.025c-0.029,0.035-0.475,0.234-0.555,0.238c-0.465,0.024-0.99,0.523-1.474,0.626  c-2.226,0.474-4.757,0.081-6.92-0.468c-0.691-0.171-1.302-0.435-1.959-0.705c-0.49-0.202-1.018-0.311-1.497-0.539  c-0.315-0.15-0.783-0.559-1.137-0.577c-0.437-0.024-1.153-0.626-1.584-0.792c-0.543-0.21-1.372-0.498-1.833-0.872  c-0.319-0.258-1.597-0.423-1.71-0.75c-0.063-0.181-1.293-0.491-1.528-0.516c-0.872-0.093-1.789-0.433-2.657-0.641  c-1.432-0.344-2.869-0.516-4.336-0.604c-1.282-0.077-2.564-0.229-3.849-0.214c-1.046,0.012-2.134,0.565-3.128,0.515  c-1.024-0.052-2.049,0.743-3.055,0.905c-1.295,0.208-2.825,1.223-3.879,1.939c-1.468,0.998-2.656,2.272-3.974,3.565  c-0.706,0.693-0.859,1.017-1.203,1.851c-0.431,1.047,0.186,2.004,0.15,3.116c-0.091,2.746,0.194,5.488,0.148,8.232  c-0.038,2.284-0.101,4.549-0.031,6.914c0.038,1.262-0.067,2.504-0.045,3.774c0.012,0.705,0.075,1.411,0.034,2.115  c-0.037,0.631,0.062,1.303,0.006,1.912c-0.092,1.007,0.122,2.109,0.029,3.195c-0.135,1.563,0.015,3.117,0.071,4.68  c0.054,1.521,0.062,3.043,0.063,4.565c0.001,1.532,0.172,3.079,0.002,4.605c-0.256,2.297-0.277,4.448-0.291,6.737  c-0.027,4.745-0.218,9.409,0.345,14.086c0.075,0.619,0.129,1.187,0.323,1.789c0.176,0.547,0.905,0.866,1.434,1.046  c0.478,0.162,1.838,0.258,2.152-0.309c0.206-0.372,0.584-0.565,0.732-0.987c0.363-1.039-0.121-2.31-0.136-3.434  c-0.014-1.029-0.134-2.053-0.226-3.078c-0.08-0.882,0.123-1.721,0.178-2.606c0.076-1.223-0.057-2.429-0.156-3.641  c-0.106-1.31-0.026-2.735,0.111-4.063c0.049-0.475,0.253-1.008,0.181-1.479c-0.094-0.618-0.146-1.062,0.011-1.672  c0.124-0.481,0.004-0.87,0.013-1.339c0.015-0.737,0.236-1.476,0.238-2.218c0.001-0.885-0.24-1.739-0.164-2.609  c0.068-0.776-0.116-1.505-0.153-2.221c-0.036-0.847,0.223-1.707,0.133-2.542c-0.107-1.003-0.234-1.874-0.21-2.897  c0.011-0.473-0.13-0.939-0.101-1.409c0.012-0.188,0.172-0.451,0.178-0.597c0.074-1.118-0.095-1.885,0.871-2.693  c1.867-1.565,4.466-2.266,6.847-2.343c1.202-0.039,2.466,0.119,3.606,0.205c1.374,0.097,2.726,0.093,4.092,0.287  c0.282,0.04,1.862,0.228,1.908,0.308c0.065,0.111,1.132,0.205,1.364,0.324c0.295,0.151,0.895,0.451,1.223,0.435  c0.828-0.042,2.03,0.543,2.836,0.835c0.313,0.113,0.374,0.157,0.7,0.282c0.243,0.093,0.951,0.206,1.097,0.378  c0.269,0.318,1.482,0.608,1.908,0.691c0.806,0.158,1.545,0.393,2.365,0.515c3.035,0.45,5.943,0.574,8.992,0.133  c1.352-0.196,2.67-0.496,4.004-0.783c0.64-0.136,1.109-0.477,1.82-0.709c0.826-0.269,1.732-0.564,2.48-0.976  c1.147-0.633,1.946-1.661,2.828-2.592c-0.035-0.442,0.349-0.964,0.449-1.377C77.286,43.277,77.522,42.555,77.332,42.363z   M72.501,41.808c-0.052,0.62-1.277,1.239-1.821,1.267c-0.642,0.034-1.228,0.576-1.641,0.927c-1.033,0.879-1.733,1.19-3.111,1.449  c-1.185,0.224-2.411,0.277-3.614,0.265c-0.618-0.006-1.236-0.035-1.85-0.106c-0.416-0.049-0.807-0.153-1.237-0.186  c-0.418-0.032-0.738-0.111-1.138-0.2c-0.071-0.016-1.044-0.167-1.109-0.247c-0.302-0.386-1.682-0.275-1.98-0.634  c-0.268-0.329-0.847-0.442-1.235-0.501c-0.589-0.09-1.117-0.392-1.695-0.528c-0.635-0.15-1.246-0.283-1.864-0.504  c-0.297-0.106-1.07-0.206-1.241-0.515c-0.226-0.408-1.791-0.401-2.278-0.463c-1-0.128-1.937-0.318-2.939-0.353  c-1.261-0.044-2.552-0.023-3.805-0.165c-1.341-0.152-2.589-0.312-3.953-0.236c-2.483,0.138-4.731,0.664-7.042,1.534  c-1.085,0.408-0.586-2.33-0.556-2.94c0.072-1.483,0.009-2.967-0.061-4.448c-0.087-1.848-0.522-3.758-0.282-5.687  c0.148-1.186-0.02-2.302-0.132-3.486c-0.06-0.639-0.085-1.196-0.256-1.819c-0.161-0.583,0.072-1.145,0.098-1.665  c0.021-0.394-0.269-0.997,0.042-1.333c0.353-0.382,0.81-0.694,1.176-1.077c0.486-0.508,0.956-0.707,1.451-1.129  c0.899-0.765,2.119-1.319,3.269-1.608c2.305-0.572,4.451-0.818,6.85-0.547c1.197,0.135,2.408,0.131,3.603,0.309  c0.941,0.14,1.782,0.526,2.722,0.843c1.299,0.438,2.605,1.184,3.838,1.79c2.146,1.054,4.37,1.965,6.665,2.593  c1.934,0.531,4.018,0.911,6.011,1.101c0.867,0.083,1.687-0.032,2.542-0.072c0.896-0.042,1.994-0.137,2.851-0.396  c0.4-0.12,1.372-0.207,1.665-0.557c0.157-0.187,0.53-0.341,0.765-0.387c0.549-0.108,0.342,1.028,0.336,1.38  c-0.019,1.037,0.262,2.054,0.257,3.095c-0.006,1.162,0.007,2.318,0.037,3.479c0.053,2.066-0.031,4.121,0.012,6.181  C71.891,38.126,72.661,39.899,72.501,41.808C72.492,41.919,72.578,40.892,72.501,41.808z"/></svg>