<svg xmlns="http://www.w3.org/2000/svg" xmlns:xlink="http://www.w3.org/1999/xlink" version="1.1" x="0px" y="0px" viewBox="0 0 100 125" enable-background="new 0 0 100 100" xml:space="preserve"><path d="M2.428,39.327c7.765-1.193,14.841-3.969,21.337-8.394c1.737-1.183,3.369,1.638,1.644,2.813  c-2.607,1.776-5.312,3.293-8.113,4.567c0.063-0.007,0.122-0.02,0.19-0.021c29.821-0.321,58.826,10.588,81.096,30.409  c1.569,1.397-0.741,3.694-2.304,2.304C74.65,51.755,46.43,41.238,17.486,41.55c-1.66,0.018-2.001-2.015-1.033-2.876  c-3.154,1.368-6.427,2.432-9.832,3.171c6.029,4.85,12.058,9.7,18.086,14.55c1.634,1.314-0.684,3.606-2.303,2.303  C15.506,53.149,8.607,47.599,1.709,42.05C0.803,41.321,1.267,39.506,2.428,39.327z"/><text x="0" y="115" fill="#000000" font-size="5px" font-weight="bold" font-family="'Helvetica Neue', Helvetica, Arial-Unicode, Arial, Sans-serif">Created by Gorreá</text><text x="0" y="120" fill="#000000" font-size="5px" font-weight="bold" font-family="'Helvetica Neue', Helvetica, Arial-Unicode, Arial, Sans-serif">from the Noun Project</text></svg>