<!-- Map Marker by Spencer Harrison from the Noun Project -->
<svg xmlns="http://www.w3.org/2000/svg" xmlns:xlink="http://www.w3.org/1999/xlink" version="1.1" x="0px" y="0px" viewBox="0 0 100 100" enable-background="new 0 0 100 100" xml:space="preserve"><path fill-rule="evenodd" clip-rule="evenodd" d="M29.9,56.4c-0.3-0.2-0.1-0.4-0.1-0.6c0,0-0.1,0-0.1-0.1c0-0.2-0.1-0.3-0.2-0.4  c-0.1-0.1-0.1-0.2-0.2-0.3c0,0-0.1-0.3-0.1-0.3c-0.3-0.2-0.5-0.7-0.8-1.1c-0.1-0.1-0.2-0.6-0.3-0.9c-0.1-0.2-0.2-0.5-0.3-0.7  c-0.1-0.2,0-0.3-0.1-0.4c0-0.1-0.2-0.2-0.2-0.2c0-0.1,0-0.2,0-0.2c0-0.1-0.2-0.2-0.2-0.4c-0.1-0.4-0.2-0.9-0.3-1.5  c-0.1-0.5-0.2-1-0.3-1.5c-0.2-0.8-0.2-1.5-0.3-2.4c0-0.1,0-0.3,0-0.4c0-0.1-0.1-0.1-0.1-0.2c-0.1-0.8-0.1-1.6-0.1-2.6  c0-0.1,0-0.3,0-0.4c-0.2-0.8-0.3-2.5-0.2-3.6c0.1-0.7,0.3-1.4,0.4-2c0.2-0.6,0.4-1.2,0.6-1.8c0.2-0.6,0.3-1.3,0.4-1.9  c0,0,0.1,0,0.1-0.1c0-0.2,0.1-0.2,0.1-0.3c0-0.1,0.1-0.3,0.1-0.4c0.1-0.2,0.1-0.4,0.2-0.7c0-0.1,0.1-0.1,0.1-0.1  c0.2-0.6,0.3-1.2,0.6-1.8c0-0.1,0.1,0,0.1-0.1c0-0.2,0.2-0.2,0.2-0.4c0-0.1,0.1-0.3,0.2-0.4c0.1-0.1,0.4-0.8,0.4-1  c0-0.1,0.1-0.2,0.1-0.2c0-0.1,0.3-0.5,0.3-0.7c0,0,0.1-0.2,0.1-0.2c0.4-0.8,0.6-1.5,1.2-2c0.1-0.1,0.1-0.2,0.2-0.2  c0.2-0.1,0.5-0.3,0.8-0.6c0.1-0.1,0.3-0.3,0.4-0.4c0.1-0.2,0.2-0.4,0.3-0.6c0.1-0.2,0.3-0.3,0.4-0.4c0.3-0.4,0.5-0.7,0.8-1  c0.1-0.1,0.4-0.2,0.6-0.3c0.2-0.1,0.3-0.3,0.4-0.4c0.2-0.1,0.4-0.2,0.6-0.3c0.2-0.2,0.3-0.4,0.4-0.4c0.1-0.1,0.2-0.1,0.3-0.1  c0.2-0.1,0.6-0.3,0.9-0.4c0,0,0.2,0,0.2,0c0,0,0-0.1,0-0.1c0,0,0.2,0,0.2,0c0,0,0-0.1,0-0.1c0,0,0.2,0,0.2,0c0,0,0-0.1,0-0.1  c0,0,0.2,0,0.2,0c0,0,0-0.1,0-0.1c0,0,0.2,0,0.2,0c0,0,0-0.1,0-0.1c0,0,0.2,0,0.2,0c0.2-0.2,0.7-0.5,1.1-0.7  c0.8-0.3,1.5-0.5,2.2-0.7c1.2-0.3,2-0.4,3.4-0.6c0,0,0.2,0,0.2,0c0.2-0.2,1-0.1,1.5-0.1c0.2,0,0.4-0.1,0.7-0.1c0.7,0,1.2,0.2,1.9,0  c0.4-0.1,1.6-0.2,2.5-0.1c0.4,0,0.9,0.2,1.3,0.3c0.4,0.1,0.6,0.1,1,0.2c0,0,0.2,0,0.2,0c0.1,0.1,0.1,0.1,0.2,0.1  c0,0,0.3,0.1,0.3,0.1c0.2,0.2,0.9,0.5,1.3,0.7c0,0,0.2,0,0.2,0c0.2,0.2,0.7,0.4,1.1,0.6c0.3,0.1,0.7,0.3,1,0.4  c0.4,0.2,0.8,0.3,1.1,0.4c0.1,0,0.2,0.2,0.2,0.2c0,0,0.2,0,0.2,0c0.1,0.1,0.3,0.1,0.6,0.2c0.4,0.2,0.7,0.3,1,0.4  c0.2,0.1,0.5,0.3,0.7,0.3c0.2,0,0.4,0.2,0.6,0.3c0.2,0.1,0.3,0.3,0.4,0.4c0.1,0.1,0.3,0,0.3,0.1c0.2,0.1,0.2,0.4,0.3,0.6  c0.1,0.1,0.4,0.2,0.6,0.3c0.2,0.1,0.3,0.3,0.4,0.4c0.1,0.1,0.2,0.2,0.2,0.2c0.1,0.1,0.3,0,0.3,0.1c0.3,0.3,0.5,0.6,0.8,0.9  c0.2,0.1,0.4,0.2,0.6,0.3c0.2,0.1,0.3,0.3,0.4,0.4c0.4,0.4,0.9,0.7,1.3,1.2c0.1,0.1,0.3,0.3,0.4,0.4c0.1,0.2,0.3,0.3,0.4,0.4  c0.1,0.1,0,0.2,0.1,0.3c0,0.1,0.2,0.1,0.2,0.1c0,0,0,0.2,0,0.2c0.1,0.1,0.1,0.1,0.2,0.2c0.1,0.1,0.1,0.2,0.2,0.3  c0.1,0.1,0.1,0.3,0.2,0.6c0,0.1,0.2,0.2,0.2,0.2c0.1,0.2,0.1,0.3,0.1,0.4c0,0.1,0.1,0.2,0.1,0.2c0.1,0.1,0.1,0.2,0.2,0.3  c0.1,0.1,0,0.3,0.1,0.6c0,0,0.1,0,0.1,0.1c0,0,0,0.1,0,0.1c0,0.1,0.1,0.3,0.2,0.6c0,0.1,0.1,0,0.1,0.1c0,0.1,0.1,0.2,0.1,0.2  c0,0.1,0.1,0.2,0.1,0.3c0,0.1,0,0.3,0.1,0.4c0,0.1,0.2,0.2,0.2,0.2c0,0.1-0.1,0.4,0,0.4c0.1,0.1,0.1,0.1,0.1,0.2  c0,0.1,0.1,0.1,0.1,0.1c0.2,0.6,0.2,1.2,0.3,1.8c0,0,0.1,0,0.1,0.1c0,0.5,0,1,0.1,1.7c0,0.3,0.2,0.6,0.2,0.9c0.1,0.5,0,0.8,0.1,1.5  c0,0.3,0.2,0.8,0.2,1.2c0.1,1,0,2.1,0,3.1c0,1,0.1,2.1,0,3.1c-0.1,0.8-0.3,1.8-0.4,2.7c-0.1,0.6-0.3,1.1-0.3,1.7  c0,0.4-0.2,1-0.3,1.5c-0.1,0.3-0.2,0.6-0.3,0.9c0,0,0,0.2,0,0.2c-0.2,0.2-0.2,0.6-0.3,1c0,0-0.1,0-0.1,0.1c0,0.1-0.1,0.4-0.2,0.7  c-0.1,0.3-0.3,0.7-0.4,1c-0.2,0.4-0.3,0.8-0.4,1.1c-0.1,0.2-0.1,0.4-0.2,0.6c0,0.1-0.2,0.2-0.2,0.2c0,0,0,0.2,0,0.2  c-0.1,0.1-0.2,0.3-0.3,0.6c-0.1,0.2-0.1,0.4-0.2,0.6c0,0.1-0.2,0.2-0.2,0.2c0,0,0,0.2,0,0.2c0,0-0.1,0-0.1,0c0,0,0,0.2,0,0.2  c0,0-0.1,0-0.1,0c0,0,0,0.2,0,0.2c-0.1,0.1-0.1,0.1-0.1,0.2c0,0.1-0.2,0.2-0.2,0.3c-0.1,0.1-0.2,0.3-0.2,0.4c0,0.1-0.2,0.2-0.2,0.3  c0,0.1-0.1,0.1-0.1,0.2c0,0.1,0,0.3-0.1,0.3c0,0-0.2,0.1-0.2,0.1c-0.1,0.1-0.1,0.4-0.2,0.6c0,0.1-0.2,0.2-0.2,0.2  c-0.1,0.1-0.1,0.1-0.1,0.2c-0.1,0.2-0.2,0.5-0.3,0.8c0,0.1-0.1,0-0.1,0.1c0,0.1-0.1,0.4-0.2,0.4c-0.1,0.1-0.4,0.2-0.6,0.3  c-0.3,0.3-0.6,1-0.9,1.5c0,0.1-0.1,0-0.1,0.1c0,0-0.1,0.2-0.1,0.2c0,0.1-0.2,0.2-0.2,0.2c-0.1,0.1,0,0.2-0.1,0.3  c-0.1,0.2-0.4,0.5-0.6,0.8c0,0.1-0.2,0.2-0.2,0.2c-0.1,0.1,0,0.2-0.1,0.3c0,0-0.2,0.1-0.2,0.1c-0.1,0.2-0.1,0.3-0.2,0.4  c-0.1,0.1-0.3,0.3-0.4,0.4c-0.1,0.2-0.2,0.4-0.3,0.6c-0.1,0.2-0.3,0.3-0.4,0.4c0,0,0,0.2,0,0.2c-0.1,0.1-0.3,0.2-0.4,0.3  c-0.1,0.2-0.2,0.4-0.3,0.6c-0.3,0.3-0.6,0.6-0.9,0.9C61,72.4,61,72.4,61,72.5c-0.1,0.2-0.4,0.3-0.6,0.6c-0.1,0.1,0,0.2-0.1,0.3  c0,0-0.2,0.1-0.2,0.1C60,73.7,60,73.8,59.9,74c-0.2,0.4-0.5,0.8-0.8,1.1c-0.3,0.3-0.5,0.6-0.8,1c-0.5,0.6-1.2,1.2-1.8,1.9  c-0.3,0.3-0.6,0.6-0.9,1c-0.1,0.1-0.3,0.3-0.4,0.4c-0.3,0.3-0.5,0.7-0.8,1c-0.4,0.4-0.8,0.4-1.3,0.8c-0.1,0.1-0.2,0.2-0.3,0.3  c-0.5,0.4-0.8,0.9-1.3,1.3c-0.4,0.4-1.1,0.8-1.7,1.1c-0.1,0,0,0.1-0.1,0.1c-0.1,0-0.2,0.1-0.3,0.1c-0.2,0.1-0.3,0.1-0.6,0.1  c0,0,0,0.1-0.1,0.1c-0.1,0-0.3,0-0.4,0c0,0,0,0.1-0.1,0.1c-0.5,0-1-0.2-1.5-0.4c-0.5-0.3-0.8-0.4-1-0.9c-0.1-0.1-0.2-0.2-0.2-0.3  c0-0.2-0.3-0.5-0.4-0.8c-0.1-0.1-0.1-0.3-0.2-0.4c0-0.1-0.2-0.2-0.2-0.2c0,0,0-0.2,0-0.2c0,0-0.1,0-0.1,0c0,0,0-0.2,0-0.2  c0,0-0.1,0-0.1,0c0,0,0-0.2,0-0.2c0,0-0.1,0-0.1,0c-0.1-0.2-0.2-0.4-0.2-0.6c0-0.1-0.1,0-0.1-0.1c0-0.2-0.1-0.2-0.1-0.3  c0-0.1-0.2-0.2-0.2-0.2c0,0,0-0.2,0-0.2c-0.1-0.1-0.2-0.2-0.3-0.4c-0.2-0.5-0.3-0.7-0.6-1.2c0-0.1-0.1,0-0.1-0.1  c0-0.1-0.2-0.1-0.2-0.2c0,0,0-0.2,0-0.2c-0.2-0.1-0.3-0.5-0.4-0.8c0,0,0-0.2,0-0.2c-0.1-0.1-0.3-0.3-0.3-0.4c0,0,0-0.1,0-0.1  c-0.1-0.1-0.3-0.2-0.3-0.3c0,0,0-0.2,0-0.2c-0.2-0.1-0.2-0.2-0.3-0.4c0-0.1-0.1,0-0.1-0.1c0-0.2-0.2-0.4-0.3-0.6  c-0.1-0.1-0.2-0.2-0.2-0.3c0-0.1-0.2-0.2-0.2-0.3c0-0.1-0.1-0.2-0.1-0.2c-0.1-0.1-0.3-0.2-0.3-0.3c-0.1-0.1-0.1-0.2-0.1-0.3  c0-0.1-0.1,0-0.1-0.1c0,0,0-0.1,0-0.1c-0.1-0.2-0.3-0.2-0.3-0.3c0,0,0-0.2,0-0.2c-0.2-0.1-0.2-0.2-0.3-0.4c0-0.1-0.1,0-0.1-0.1  c0-0.2-0.4-0.4-0.4-0.7c0-0.2-0.2-0.4-0.3-0.6c0-0.1-0.1-0.2-0.1-0.2c-0.1-0.1-0.3-0.2-0.3-0.3C37,69,37,68.9,37,68.8  c-0.1-0.2-0.2-0.4-0.3-0.7c-0.1-0.1-0.3-0.2-0.3-0.3c0,0,0-0.2,0-0.2c0,0-0.1,0-0.1,0c0,0,0-0.2,0-0.2c-0.1-0.1-0.3-0.3-0.3-0.4  c0-0.1-0.2-0.1-0.2-0.2c0,0,0-0.2,0-0.2c-0.1-0.1-0.3-0.3-0.3-0.4c0-0.1-0.2-0.3-0.3-0.4c-0.3-0.4-0.5-0.8-0.8-1.3  C34.1,64.1,34,64,34,63.9c0,0,0-0.1,0-0.1c0-0.1-0.2-0.2-0.2-0.2c0,0,0-0.2,0-0.2c0,0-0.1,0-0.1,0c0,0,0-0.2,0-0.2c0,0-0.1,0-0.1,0  c0,0,0-0.2,0-0.2c0,0-0.1,0-0.1,0c-0.1-0.2-0.2-0.5-0.3-0.8c0-0.1-0.1,0-0.1-0.1c0,0,0-0.1,0-0.1c0-0.1-0.2-0.2-0.2-0.2  c0,0,0-0.2,0-0.2c0,0-0.1,0-0.1,0c0,0,0-0.2,0-0.2c-0.3-0.2-0.4-0.7-0.7-1.1c-0.1-0.1-0.2-0.1-0.2-0.2c0,0,0-0.2,0-0.2  c0,0-0.1,0-0.1,0c0,0,0-0.2,0-0.2c0,0-0.1,0-0.1,0c0,0,0-0.2,0-0.2c0,0-0.1,0-0.1,0C31.3,59,31,58.7,31,58.5c0-0.1-0.2-0.1-0.2-0.2  c-0.1-0.2-0.1-0.4-0.2-0.6c-0.1-0.2-0.1-0.3-0.2-0.4C30.2,57,30,56.7,29.9,56.4z M51,74.5c0.3-0.3,0.5-0.6,0.8-0.9  c0-0.1,0.2-0.1,0.2-0.1c0.1-0.1,0.1-0.3,0.1-0.3c0-0.1,0.2-0.1,0.2-0.2c0.1-0.1,0-0.2,0.1-0.3c0.2-0.2,0.4-0.3,0.4-0.4  c0-0.1,0.1,0,0.1-0.1c0.2-0.3,0.4-0.5,0.6-0.7c0.3-0.3,0.6-0.6,0.8-0.9c0.1-0.1,0.2-0.1,0.2-0.2c0.1-0.1,0-0.2,0.1-0.3  c0-0.1,0.2-0.1,0.2-0.1c0.1-0.1,0.1-0.3,0.1-0.3c0-0.1,0.2-0.1,0.2-0.2c0.1-0.1,0-0.2,0.1-0.3c0.1-0.1,0.3-0.2,0.4-0.3  c0.1-0.1,0.1-0.2,0.1-0.2c0.1-0.1,0.2-0.2,0.2-0.2c0.2-0.3,0.4-0.7,0.7-1c0-0.1,0.2-0.1,0.2-0.1c0.1-0.1,0-0.2,0.1-0.3  c0.1-0.2,0.3-0.3,0.4-0.4c0.1-0.1,0.2-0.3,0.3-0.4c0.1-0.2,0.3-0.3,0.4-0.4c0.1-0.1,0.1-0.2,0.1-0.2c0.1-0.1,0.2-0.1,0.2-0.2  c0.1-0.2,0.2-0.4,0.3-0.6c0.4-0.5,0.9-0.9,1.2-1.2c0.1-0.1,0.2-0.4,0.3-0.6c0-0.1,0.2-0.1,0.2-0.1c0.1-0.1,0-0.2,0.1-0.3  c0.1-0.2,0.4-0.4,0.4-0.6c0-0.1,0.1-0.1,0.1-0.1c0.1-0.2,0.2-0.5,0.2-0.7c0.1-0.3,0.5-1.1,0.7-1.2c0,0,0-0.2,0-0.2c0,0,0.1,0,0.1,0  c0,0,0-0.2,0-0.2c0.2-0.6,0.5-1.1,0.8-1.6c0.1-0.2,0.2-0.4,0.3-0.4c0,0,0-0.2,0-0.2c0-0.1,0.2-0.2,0.2-0.2c0.1-0.2,0.1-0.4,0.2-0.6  c0,0,0.1,0,0.1,0c0,0,0-0.2,0-0.2c0-0.1,0.2-0.1,0.2-0.2c0.1-0.2,0.1-0.3,0.1-0.4c0.1-0.3,0.5-1.1,0.7-1.2c0,0,0.1-0.3,0.1-0.3  c0.1-0.2,0.2-0.7,0.2-1c0-0.3,0-0.6,0.1-0.9c0.1-0.3,0.3-0.7,0.3-0.9c0.2-0.8,0.3-1.6,0.4-2.4c0.1-0.6,0.3-1.1,0.3-1.7  c0.1-0.8,0-1.6,0-2.5c0-0.9,0.1-1.7,0.1-2.4c0-0.2-0.1-0.5-0.1-0.7c0-0.3,0-0.5,0-0.8c-0.1-1-0.4-2.2-0.4-3c0-0.2-0.1-0.2-0.1-0.3  c-0.1-0.6-0.1-2-0.3-2.2c0,0,0-0.2,0-0.2c-0.1-0.4-0.2-1-0.3-1.1c0,0,0-0.2,0-0.2c-0.1-0.1-0.1-0.3-0.2-0.3c0,0,0-0.2,0-0.2  c-0.1-0.1-0.1-0.3-0.2-0.3c0,0,0-0.2,0-0.2c-0.1-0.2-0.1-0.5-0.2-0.7c0-0.1-0.2-0.2-0.2-0.2c-0.1-0.2-0.1-0.4-0.2-0.6  c0,0-0.1,0-0.1,0c0,0,0-0.2,0-0.2c-0.1-0.1-0.2-0.1-0.2-0.2c-0.1-0.1-0.1-0.2-0.1-0.2c-0.1-0.1-0.2-0.1-0.2-0.2  c-0.1-0.2-0.2-0.4-0.3-0.6c-0.1-0.1-0.3-0.2-0.4-0.3c-0.5-0.5-0.8-0.9-1.2-1.2c-0.4-0.4-1-0.7-1.3-1c-0.2-0.1-0.3-0.3-0.4-0.4  c-0.4-0.4-0.8-0.8-1.2-1.1c-0.2-0.1-0.4-0.4-0.4-0.4c-0.4-0.2-0.9-0.1-1.3-0.3c0,0-0.2-0.2-0.2-0.2c-0.3-0.2-0.5-0.2-0.8-0.3  c0,0-0.1-0.1-0.1-0.1c-0.1,0-0.2-0.1-0.2-0.1c-0.1,0-0.2-0.2-0.2-0.2c-0.2-0.1-0.3,0-0.4-0.1c0,0-0.1-0.1-0.1-0.1  c-0.2-0.1-0.4-0.2-0.4-0.2c-0.1,0-0.1-0.1-0.1-0.1c-0.3-0.1-1-0.1-1.1-0.3c0,0-0.5-0.1-0.4-0.1c-1-0.3-1.7,0-2.8,0.1  c-0.6,0-1.4,0-1.8,0c-0.2,0-0.4,0.1-0.6,0.1c-0.2,0-0.4-0.2-0.6-0.2c-0.1,0-0.1-0.1-0.1-0.1c-0.5-0.2-1.1-0.1-1.5,0  c-0.3,0.1-0.6,0.2-0.9,0.2c-0.4,0.1-0.8,0-1.1,0.1c0,0,0,0.1,0,0.1c-0.1,0.1-0.3,0-0.4,0.1c0,0-0.2,0-0.2,0  c-0.4,0.1-1.1,0.3-1.2,0.4c0,0-0.2,0-0.2,0c0,0,0,0.1,0,0.1c0,0-0.2,0-0.2,0c-0.1,0-0.2,0.2-0.2,0.2c-0.2,0.1-0.4,0.1-0.6,0.2  c0,0,0,0.1,0,0.1c0,0-0.2,0-0.2,0c-0.1,0-0.2,0.2-0.2,0.2c-0.2,0.1-0.4,0.4-0.6,0.4c-0.1,0-0.1,0.1-0.1,0.1  c-0.2,0.1-0.5,0.1-0.7,0.2c-0.1,0.1-0.2,0.2-0.3,0.2c-0.1,0-0.1,0.1-0.1,0.1c-0.1,0.1-0.2,0-0.3,0.1c-0.1,0-0.2,0.2-0.2,0.2  c-0.1,0.1-0.2,0-0.3,0.1c-0.1,0.1-0.2,0.2-0.3,0.3c-0.3,0.3-0.6,0.7-0.8,0.9c-0.1,0.1-0.2,0.1-0.2,0.2c-0.2,0.3-0.4,0.8-0.7,1.2  C35,28.5,35,28.8,34.9,29c0,0.1-0.2,0.1-0.2,0.2c0,0-0.1,0.2-0.1,0.2c0,0.1-0.1,0.1-0.1,0.1c-0.1,0.2-0.1,0.4-0.2,0.7  c0,0.1-0.1,0-0.1,0.1c0,0.1,0,0.2-0.1,0.3c-0.1,0.1-0.2,0.2-0.2,0.3c0,0.1,0,0.2,0,0.2c0,0.1-0.2,0.2-0.2,0.2  c-0.1,0.1-0.1,0.2-0.1,0.3c0,0.1-0.1,0.2-0.1,0.2c0,0.1-0.1,0.1-0.1,0.1c-0.1,0.2-0.1,0.5-0.1,0.8c-0.1,0.3-0.2,0.5-0.2,0.8  c-0.1,0.5-0.3,1.1-0.3,1.6c-0.1,1,0,2-0.1,2.6c-0.2,1.5-0.2,3.2,0,4.6c0,0.1,0.1,0.2,0.1,0.3c0,0.2,0,0.4,0,0.6  c0.1,0.6,0.1,1.2,0.2,1.8c0.1,0.6,0.1,1.3,0.2,1.8c0.2,0.6,0.5,1.1,0.7,1.7c0.2,0.5,0.3,1,0.4,1.3c0.1,0.2,0.3,0.5,0.3,0.7  c0,0.1,0.1,0.1,0.1,0.1c0.1,0.3,0.2,0.6,0.2,0.7c0.1,0.1,0.1,0.2,0.1,0.2c0.1,0.1,0.3,0.2,0.3,0.3c0.1,0.1,0,0.3,0.1,0.4  c0,0.1,0.2,0.1,0.2,0.2c0,0.1,0.1,0.1,0.1,0.1c0.2,0.3,0.3,0.5,0.4,0.8c0.1,0.2,0,0.3,0.1,0.4c0,0,0.1,0,0.1,0c0,0,0,0.2,0,0.2  c0,0,0.1,0,0.1,0c0,0,0.1,0.3,0.1,0.3c0,0.1,0.1,0.2,0.1,0.2c0.2,0.5,0.5,0.8,0.7,1.2c0,0.1,0.1,0.2,0.1,0.2c0,0.2,0.2,0.3,0.2,0.4  c0,0.1,0.1,0.1,0.1,0.1c0.1,0.3,0.2,0.6,0.3,0.9c0.3,0.6,0.7,1.1,0.9,1.6c0.1,0.2,0.1,0.4,0.2,0.4c0,0,0,0.2,0,0.2c0,0,0.1,0,0.1,0  c0,0,0,0.2,0,0.2c0,0,0.2,0.1,0.2,0.1c0.1,0.1,0.1,0.3,0.1,0.3c0,0,0.1,0,0.1,0c0,0,0,0.2,0,0.2c0,0.1,0.2,0.2,0.2,0.2  c0.2,0.3,0.3,0.6,0.4,0.8c0,0.1,0.2,0.2,0.2,0.2c0.4,0.6,0.8,1.4,1.2,2c0.4,0.7,0.8,1.3,1.2,2c0.1,0.1,0.1,0.2,0.1,0.2  c0.1,0.1,0.2,0.1,0.2,0.2c0.1,0.1,0.1,0.2,0.1,0.2c0.1,0.1,0.2,0.2,0.2,0.3c0,0.2,0.2,0.3,0.2,0.4c0.1,0.2,0.2,0.4,0.3,0.6  c0.1,0.2,0.3,0.4,0.3,0.6c0,0.1,0.1,0.1,0.1,0.1c0.1,0.1,0,0.2,0.1,0.3c0,0,0.2,0.1,0.2,0.1c0.1,0.1,0,0.2,0.1,0.3  c0.1,0.1,0.2,0.1,0.2,0.2c0.1,0.1,0,0.2,0.1,0.3c0,0,0.2,0.1,0.2,0.1c0.1,0.1,0.1,0.3,0.1,0.3c0,0,0.1,0,0.1,0c0,0,0,0.2,0,0.2  c0.1,0.1,0.2,0.1,0.2,0.2c0.1,0.1,0.1,0.2,0.1,0.2c0.1,0.1,0.2,0.1,0.2,0.2c0.1,0.1,0,0.2,0.1,0.3c0,0.1,0.2,0.2,0.2,0.2  c0.2,0.3,0.4,0.7,0.6,1c0,0,0.1,0,0.1,0c0,0,0,0.2,0,0.2c0,0.1,0.2,0.1,0.2,0.2c0.1,0.2,0.1,0.5,0.2,0.7c0,0,0.1,0,0.1,0  c0.1,0.1,0.1,0.5,0.1,0.6c0,0.1,0.2,0.2,0.2,0.2c0.1,0.1,0.1,0.3,0.1,0.4c0,0.1,0.1,0.1,0.1,0.1c0.2,0.3,0.3,0.7,0.7,0.7  C50.1,75.8,50.5,75.1,51,74.5z"/><path fill-rule="evenodd" clip-rule="evenodd" d="M47.5,29.2c0,0,0-0.1,0.1-0.1c0.5-0.1,1.3,0,2.1,0c0.7,0,1.5-0.1,2,0  c0,0,0,0.1,0.1,0.1c0.2,0,0.5,0,0.8,0.1c0,0,0,0.1,0.1,0.1c0,0,0.1,0,0.1,0c0.1,0,0.1,0.1,0.1,0.1c0.2,0.1,0.3,0,0.4,0.1  c0.1,0.1,0.1,0.3,0.2,0.3c0.1,0.1,0.2,0,0.3,0.1c0.1,0,0,0.1,0.1,0.1c0,0,0.2,0.1,0.2,0.1c0,0,0.1,0.2,0.1,0.2c0.1,0,0.2,0,0.2,0  c0.1,0.1,0.1,0.3,0.2,0.3c0.1,0.1,0.2,0,0.3,0.1c0.3,0.2,0.6,0.7,0.9,1c0.4,0.4,0.8,0.8,1.1,1.2c0.1,0.1,0.2,0.2,0.2,0.2  c0.1,0.2,0.2,0.4,0.3,0.6c0.1,0.1,0.3,0.3,0.4,0.4c0.1,0.1,0,0.2,0.1,0.3c0,0.1,0.2,0.2,0.2,0.2c0.1,0.3,0,0.9,0.1,1.3  c0,0.3,0.2,0.7,0.2,1.1c0,0.5,0,1.1,0,1.7c0,0.5,0.1,1.2,0,1.6c0,0-0.1,0-0.1,0.1c0,0.2-0.1,0.4-0.2,0.6c-0.1,0.2-0.3,0.3-0.4,0.4  c0,0,0,0.2,0,0.2c0,0-0.2,0.1-0.2,0.1c-0.1,0.1,0,0.2-0.1,0.3c-0.1,0.2-0.3,0.3-0.4,0.4c-0.2,0.2-0.3,0.4-0.4,0.6  c-0.1,0.1,0,0.2-0.1,0.3c0,0.1-0.2,0.2-0.2,0.2c-0.3,0.4-0.4,0.9-0.7,1.1c-0.1,0.1-0.4,0.2-0.6,0.3c-0.1,0.1-0.1,0.2-0.2,0.2  c0,0-0.2,0-0.2,0c-0.1,0.1-0.2,0.1-0.3,0.2c-0.1,0.1-0.1,0.2-0.2,0.2c-0.1,0.1-0.4,0.1-0.6,0.2c-0.1,0-0.1,0.2-0.2,0.2  c-0.5,0.4-1.3,0.7-2.1,0.9c-0.4,0.1-1.9,0.2-2.9,0.1c-0.1,0-0.2-0.1-0.3-0.1c-0.1,0-0.2,0-0.3,0c-0.2,0-0.4-0.2-0.6-0.2  c-0.2-0.1-0.4-0.1-0.7-0.1c-0.3-0.1-0.5-0.1-0.7-0.2c0,0-0.3-0.1-0.3-0.1c-0.1-0.1-1.1-0.5-1.2-0.6c-0.1,0,0-0.1-0.1-0.1  c0,0-0.1,0-0.1,0c-0.1-0.1-0.3-0.3-0.4-0.4c-0.1-0.1-0.2-0.2-0.2-0.2c-0.1-0.1-0.3,0-0.3-0.1c-0.1-0.1-0.3-0.3-0.4-0.4  c-0.2-0.2-0.4-0.3-0.4-0.4c0,0,0-0.2,0-0.2c-0.1-0.1-0.2-0.1-0.3-0.3c-0.1-0.1-0.2-0.2-0.3-0.4c0-0.1-0.1-0.1-0.1-0.2  c0,0-0.1-0.3-0.1-0.3c-0.3-0.2-0.5-1.4-0.7-2c0-0.1,0-0.2,0-0.2c0-0.1-0.2-0.2-0.2-0.4c0-0.1,0-0.2,0-0.2c-0.1-0.2,0-0.2,0-0.7  c0.1-0.6-0.1-1.2-0.1-1.9c0-0.4,0.1-0.8,0.2-1.3c0.1-0.4,0.1-0.9,0.2-1.2c0,0,0.1,0,0.1-0.1c0.1-0.2,0.1-0.4,0.2-0.7  c0-0.1,0.1,0,0.1-0.1c0-0.2,0.2-0.2,0.2-0.4c0,0,0.1-0.3,0.1-0.3c0.1-0.1,0.3-0.2,0.3-0.3c0.1-0.1,0.1-0.3,0.2-0.4  c0.1-0.1,0.2-0.2,0.3-0.3c0,0,0-0.2,0-0.2c0.1-0.1,0.1-0.1,0.2-0.2c0.1-0.1,0.1-0.2,0.2-0.3c0.1-0.1,0.4-0.2,0.6-0.3  c0.2-0.2,0.2-0.4,0.3-0.4c0,0,0.2,0,0.2,0c0,0,0-0.1,0-0.1c0,0,0.2,0,0.2,0c0.1-0.1,0.4-0.2,0.7-0.3c0.1,0,0.5-0.3,0.7-0.3  c0.1,0,0.2-0.1,0.2-0.1c0.2-0.1,0.4-0.1,0.7-0.2c0.2-0.1,0.4-0.2,0.8-0.2C47.4,29.2,47.5,29.2,47.5,29.2z M48,35  c-0.2,0.1-0.2,0.3-0.3,0.4c0,0.1-0.2,0.1-0.2,0.1c-0.1,0.1,0,0.2-0.1,0.3c-0.2,0.2-0.4,0.3-0.4,0.4c0,0.1-0.1,0.1-0.1,0.1  c-0.1,0.3-0.2,0.7-0.3,0.8c0,0,0,0.3,0,0.3c0,0.1-0.1,0.1-0.1,0.1c-0.1,0.8,0,2.2,0.2,2.5c0.1,0.1,0.1,0.2,0.2,0.3  c0.1,0.2,0.3,0.3,0.4,0.4c0.2,0.1,0.2,0.3,0.3,0.3c0.1,0,0.2,0,0.2,0c0.1,0,0.1,0.2,0.2,0.2c0.1,0,0.1,0.1,0.1,0.1  c0.2,0.1,0.5,0.2,0.7,0.2c0.7,0.2,2,0.1,2.2-0.2c0,0,0.2,0,0.2,0c0.2-0.1,0.2-0.3,0.4-0.3c0.1,0,0-0.1,0.1-0.1  c0.3-0.2,0.6-0.5,0.8-0.7c0.1-0.1,0.1-0.3,0.1-0.3c0-0.1,0.2-0.1,0.2-0.2c0.1-0.2,0.1-0.3,0.1-0.4c0-0.1,0.1-0.2,0.1-0.3  c0-0.1,0.1-0.1,0.1-0.1c0.1-0.6-0.1-1.7-0.1-1.9c0-0.1,0-0.1-0.1-0.2c0,0,0-0.2,0-0.2c0,0-0.1,0-0.1,0c0,0,0-0.2,0-0.2  c-0.1-0.1-0.3-0.3-0.3-0.3c-0.2-0.2-0.4-0.4-0.6-0.4c-0.1-0.1-0.2-0.2-0.2-0.2c-0.3-0.1-0.7-0.2-1.2-0.3c-0.4-0.1-0.9-0.3-1.2-0.3  c-0.3,0-1.1-0.1-1,0.1C48.2,34.9,48.1,35,48,35z"/></svg>