<!-- Pin by Caroline Mackay from the Noun Project -->
<svg xmlns="http://www.w3.org/2000/svg" data-name="Layer 1" viewBox="0 0 100 125" x="0px" y="0px"><title>Noun Project Icons</title><path d="M74.86,83.21a1,1,0,0,1-.14.26c-.86,4-6.81,5.07-10.35,5.61a112.66,112.66,0,0,1-26.06.63c-3.62-.29-15.12-1.45-13.2-7.51,2-6.39,15.22-6.65,20.4-7.11,1.54-.14,1.53,2.26,0,2.4A65.45,65.45,0,0,0,34.85,79.1c-2.46.64-10.36,3.15-4.79,6.44,4.29,2.54,11,2,15.88,2.13,3.44.11,27.1,1.21,26.48-5.74,0,0,0,0,0-.05A8.18,8.18,0,0,0,69.57,80a14.11,14.11,0,0,0-4.84-1.31.68.68,0,0,1,0-1.35C67.48,77.34,76.28,78.77,74.86,83.21Zm-42-58.6a1.36,1.36,0,0,1,.18-.43A17.93,17.93,0,0,1,53.1,9.32c10.7,1.52,19.67,12.7,18.48,23.5C70.55,42.2,62,48,53.18,48.38c0,11.5-.18,23.12-.93,34.58a1,1,0,0,1-1.93,0c-.76-11.53-1-23.21-.93-34.77-.42-.06-.83-.13-1.25-.21A19.45,19.45,0,0,1,32.83,24.61Zm2.4,5.85A16.63,16.63,0,0,0,49.09,44.54C57.66,46,67.58,40.71,67.84,31.27c.23-8.31-6.91-16.69-15-18-9.56-1.57-16.52,6.34-16.25,15.45A1.63,1.63,0,0,1,35.23,30.46Zm6.23.06c0-.3-.07-.61-.09-.9-.23-4.08,1.83-7.59,5.81-8.86.24-.08.49-.15.74-.21.85-.2.49-1.46-.36-1.3-5.37,1-9.26,6.28-7.78,11.73C40.1,32.08,41.61,31.59,41.46,30.52Z"/><text x="0" y="115" fill="#000000" font-size="5px" font-weight="bold" font-family="'Helvetica Neue', Helvetica, Arial-Unicode, Arial, Sans-serif">Created by Caroline Mackay</text><text x="0" y="120" fill="#000000" font-size="5px" font-weight="bold" font-family="'Helvetica Neue', Helvetica, Arial-Unicode, Arial, Sans-serif">from the Noun Project</text></svg>