<svg xmlns="http://www.w3.org/2000/svg" xmlns:xlink="http://www.w3.org/1999/xlink" version="1.1" x="0px" y="0px" viewBox="0 0 100 125" enable-background="new 0 0 100 100" xml:space="preserve"><path d="M97.91,39.327c-7.765-1.193-14.841-3.969-21.337-8.394c-1.737-1.183-3.369,1.638-1.644,2.813  c2.607,1.776,5.312,3.293,8.113,4.567c-0.063-0.007-0.122-0.02-0.19-0.021C53.031,37.971,24.026,48.88,1.755,68.701  c-1.569,1.397,0.741,3.694,2.304,2.304c21.629-19.25,49.849-29.766,78.793-29.455c1.66,0.018,2.001-2.015,1.033-2.876  c3.154,1.368,6.427,2.432,9.832,3.171c-6.029,4.85-12.058,9.7-18.086,14.55c-1.634,1.314,0.684,3.606,2.303,2.303  c6.898-5.549,13.796-11.099,20.695-16.649C99.535,41.321,99.072,39.506,97.91,39.327z"/><text x="0" y="115" fill="#000000" font-size="5px" font-weight="bold" font-family="'Helvetica Neue', Helvetica, Arial-Unicode, Arial, Sans-serif">Created by Gorreá</text><text x="0" y="120" fill="#000000" font-size="5px" font-weight="bold" font-family="'Helvetica Neue', Helvetica, Arial-Unicode, Arial, Sans-serif">from the Noun Project</text></svg>