<?xml version="1.0" encoding="utf-8"?>
<svg viewBox="0 0 24 24" xmlns="http://www.w3.org/2000/svg">
  <path fill="none" d="M0 0h24v24H0z"/>
  <path d="M 12 22 C 6.477 22 2 17.523 2 12 C 2 6.477 6.477 2 12 2 C 17.523 2 22 6.477 22 12 C 22 17.523 17.523 22 12 22 Z"/>
  <path d="M 14.264 11.083 L 11.747 11.09 C 10.831 11.09 10 11.805 9.813 12.035 C 9.154 12.843 9.169 13.937 9.773 14.653 C 9.821 14.71 10.667 15.647 11.747 15.647 L 16.278 15.662 L 16.278 17.387 L 11.747 17.387 C 8.647 17.387 6.709 14.031 8.259 11.346 C 8.978 10.1 10.308 9.332 11.747 9.332 L 14.264 9.332 L 14.264 7.729 L 17.285 10.246 L 14.264 12.763 L 14.264 11.083 Z" style="fill: rgb(255, 255, 255);" transform="matrix(-1, 0, 0, -1, 24.998547, 25.116)"/>
</svg>