<!-- up facing arrow by Gorreá from the Noun Project -->
<svg xmlns="http://www.w3.org/2000/svg" xmlns:xlink="http://www.w3.org/1999/xlink" version="1.1" x="0px" y="0px" viewBox="0 0 100 125" enable-background="new 0 0 100 100" xml:space="preserve"><path d="M13.746,90.784C24.877,64.536,42.997,39.151,71.97,31.585c2.026-0.529,1.186-3.677-0.848-3.146  C40.967,36.313,22.193,62.585,10.609,89.9C9.792,91.827,12.938,92.689,13.746,90.784L13.746,90.784z"/><path d="M74.933,42.011c4.633-5.569,9.285-11.124,13.9-16.708c1.652-1.999,3.763-4.2,1.565-6.666  c-1.319-1.48-3.879-1.827-5.633-2.282c-3.416-0.886-6.859-1.669-10.322-2.347C68,12.746,61.494,11.884,54.955,11.31  c-2.084-0.183-2.091,3.076-0.019,3.258c9.455,0.831,18.812,2.349,28.015,4.682c2.406,0.61,4.684,0.589,3.597,3.737  c-0.683,1.978-3.702,4.45-5.055,6.076c-2.949,3.544-5.897,7.088-8.846,10.632C71.319,41.292,73.592,43.623,74.933,42.011  L74.933,42.011z"/><text x="0" y="115" fill="#000000" font-size="5px" font-weight="bold" font-family="'Helvetica Neue', Helvetica, Arial-Unicode, Arial, Sans-serif">Created by Gorreá</text><text x="0" y="120" fill="#000000" font-size="5px" font-weight="bold" font-family="'Helvetica Neue', Helvetica, Arial-Unicode, Arial, Sans-serif">from the Noun Project</text></svg>